<mxfile host="app.diagrams.net" modified="2024-01-16T08:40:40.581Z" agent="Mozilla/5.0 (Windows NT 10.0; Win64; x64) AppleWebKit/537.36 (KHTML, like Gecko) Chrome/120.0.0.0 Safari/537.36" etag="m-naYlDtTHwFXixs3U8C" version="22.1.17" type="github">
  <diagram name="第 1 页" id="GShtoALBPB8-nCb4o4zo">
    <mxGraphModel dx="1352" dy="606" grid="0" gridSize="10" guides="1" tooltips="1" connect="1" arrows="1" fold="1" page="1" pageScale="1" pageWidth="827" pageHeight="1169" math="0" shadow="0">
      <root>
        <mxCell id="0" />
        <mxCell id="1" parent="0" />
        <mxCell id="xnbuU_zvz5QhgPJp0TYT-1" value="chip A" style="rounded=0;whiteSpace=wrap;html=1;fontSize=20;" vertex="1" parent="1">
          <mxGeometry x="65" y="429" width="181" height="240" as="geometry" />
        </mxCell>
        <mxCell id="xnbuU_zvz5QhgPJp0TYT-2" value="chip B" style="rounded=0;whiteSpace=wrap;html=1;fontSize=20;" vertex="1" parent="1">
          <mxGeometry x="408" y="429" width="181" height="240" as="geometry" />
        </mxCell>
        <mxCell id="xnbuU_zvz5QhgPJp0TYT-3" value="" style="endArrow=classic;html=1;rounded=0;entryX=0;entryY=0.25;entryDx=0;entryDy=0;fontSize=20;endFill=1;" edge="1" parent="1" target="xnbuU_zvz5QhgPJp0TYT-2">
          <mxGeometry width="50" height="50" relative="1" as="geometry">
            <mxPoint x="247" y="489" as="sourcePoint" />
            <mxPoint x="297" y="439" as="targetPoint" />
          </mxGeometry>
        </mxCell>
        <mxCell id="xnbuU_zvz5QhgPJp0TYT-4" value="" style="endArrow=classic;html=1;rounded=0;entryX=0;entryY=0.25;entryDx=0;entryDy=0;fontSize=20;endFill=1;startArrow=classic;startFill=1;" edge="1" parent="1">
          <mxGeometry width="50" height="50" relative="1" as="geometry">
            <mxPoint x="246" y="541" as="sourcePoint" />
            <mxPoint x="407" y="541" as="targetPoint" />
          </mxGeometry>
        </mxCell>
        <mxCell id="xnbuU_zvz5QhgPJp0TYT-5" value="" style="endArrow=classic;html=1;rounded=0;entryX=0;entryY=0.25;entryDx=0;entryDy=0;fontSize=20;endFill=1;startArrow=classic;startFill=1;" edge="1" parent="1">
          <mxGeometry width="50" height="50" relative="1" as="geometry">
            <mxPoint x="247" y="603" as="sourcePoint" />
            <mxPoint x="408" y="603" as="targetPoint" />
          </mxGeometry>
        </mxCell>
        <mxCell id="xnbuU_zvz5QhgPJp0TYT-6" value="ICC1" style="text;html=1;align=center;verticalAlign=middle;resizable=0;points=[];autosize=1;strokeColor=none;fillColor=none;fontSize=20;" vertex="1" parent="1">
          <mxGeometry x="269.5" y="453" width="63" height="36" as="geometry" />
        </mxCell>
        <mxCell id="xnbuU_zvz5QhgPJp0TYT-7" value="ICC2" style="text;html=1;align=center;verticalAlign=middle;resizable=0;points=[];autosize=1;strokeColor=none;fillColor=none;fontSize=20;" vertex="1" parent="1">
          <mxGeometry x="269.5" y="509" width="63" height="36" as="geometry" />
        </mxCell>
        <mxCell id="xnbuU_zvz5QhgPJp0TYT-8" value="ICC3" style="text;html=1;align=center;verticalAlign=middle;resizable=0;points=[];autosize=1;strokeColor=none;fillColor=none;fontSize=20;" vertex="1" parent="1">
          <mxGeometry x="269.5" y="571" width="63" height="36" as="geometry" />
        </mxCell>
      </root>
    </mxGraphModel>
  </diagram>
</mxfile>
